<svg xmlns="http://www.w3.org/2000/svg" width="121.747" height="100" viewBox="0 0 121.747 100"><defs><style>.a{fill:#1abf98;}.b{fill:#330c2f;}</style></defs><g transform="translate(-6148.756 -1217.247)"><g transform="translate(6150.061 1220.227)"><rect class="a" width="3.732" height="3.732" transform="translate(21.87 53.924)"/><rect class="a" width="3.732" height="3.732" transform="translate(23.245 63.436)"/><rect class="a" width="3.732" height="3.732" transform="translate(22.389 72.948)"/><g transform="translate(42.776 47.214)"><path class="a" d="M6293.315,1371.81h-7.651c-.148,2.581-.4,5.732-.562,7.47a4.68,4.68,0,0,1,3.7-1.4c4.126,0,5.726,3.009,5.726,8.2v3.2c0,5.484-1.649,9.473-7.555,9.473-5.4,0-7.246-3.414-7.246-7.733v-.709h4.857v1.108c0,1.592.479,3.331,2.389,3.331,2.045,0,2.49-1.462,2.49-4.864v-3.622c0-2.969-.486-4.3-2.444-4.3-1.694,0-2.249.99-2.579,2.927l-4.337-.446c.438-4.388,1.05-12.643,1.312-16.942h12.394Z" transform="translate(-6279.729 -1367.134)"/><path class="a" d="M6349.917,1374.594V1389.4c0,4.676-1.406,8.609-7.418,8.609-5.561,0-7.073-3.88-7.073-8.556v-14.523c0-5.354,2.3-8.548,7.34-8.548C6347.708,1366.386,6349.917,1369.5,6349.917,1374.594Zm-9.677-.245v15.676c0,2.305.692,3.555,2.437,3.555s2.383-1.3,2.383-3.692v-15.659c0-2.134-.67-3.411-2.389-3.411C6341.032,1370.818,6340.241,1371.946,6340.241,1374.349Z" transform="translate(-6316.681 -1366.386)"/><path class="a" d="M6404.842,1374.594V1389.4c0,4.676-1.405,8.609-7.418,8.609-5.562,0-7.073-3.88-7.073-8.556v-14.523c0-5.354,2.3-8.548,7.341-8.548C6402.633,1366.386,6404.842,1369.5,6404.842,1374.594Zm-9.676-.245v15.676c0,2.305.691,3.555,2.437,3.555s2.383-1.3,2.383-3.692v-15.659c0-2.134-.67-3.411-2.389-3.411C6395.956,1370.818,6395.166,1371.946,6395.166,1374.349Z" transform="translate(-6353.121 -1366.386)"/></g><g transform="translate(99.922 52.813)"><path class="a" d="M6461.892,1383.023v8.717h8.156v3.995h-8.156v8.769h-4.1v-8.769h-8.26v-3.995h8.26v-8.717Z" transform="translate(-6449.527 -1383.023)"/></g><path class="b" d="M6257.115,1304.941v8.851a1.866,1.866,0,0,1-1.866,1.866h-97.02a1.866,1.866,0,0,1-1.866-1.866v-48.51a1.866,1.866,0,0,1,1.866-1.866h9.329V1302.6a9.329,9.329,0,0,0,18.658,0v-39.181h69.033a1.865,1.865,0,0,1,1.866,1.866v8.032h3.732v-8.032a5.6,5.6,0,0,0-5.6-5.6h-9.329v-22.908a3.718,3.718,0,0,0,1.866-3.213v-3.731a3.732,3.732,0,0,0-3.731-3.732h-14.927a3.732,3.732,0,0,0-3.731,3.732v3.731a3.719,3.719,0,0,0,1.865,3.213v22.908h-11.194v-22.908a3.721,3.721,0,0,0,1.866-3.213v-3.731a3.732,3.732,0,0,0-3.731-3.732h-14.927a3.732,3.732,0,0,0-3.731,3.732v3.731a3.719,3.719,0,0,0,1.866,3.213v22.908h-11.194v-22.908a3.719,3.719,0,0,0,1.866-3.213v-3.731a3.732,3.732,0,0,0-3.731-3.732h-14.927a3.732,3.732,0,0,0-3.731,3.732v3.731a3.72,3.72,0,0,0,1.866,3.213v22.908h-9.329a5.6,5.6,0,0,0-5.6,5.6v48.51a5.6,5.6,0,0,0,5.6,5.6h1.866v1.866a1.866,1.866,0,0,0,3.731,0v-1.866h85.826v1.866a1.866,1.866,0,0,0,3.731,0v-1.866h1.866a5.6,5.6,0,0,0,5.6-5.6v-8.851Zm-14.926-45.256h-11.195V1237.3h11.195Zm-13.061-29.852h14.927v3.731h-14.927Zm-16.792,29.852h-11.195v-11.8a6.509,6.509,0,0,1,4.764.409,10.277,10.277,0,0,0,6.431.9Zm0-14.357a6.482,6.482,0,0,1-4.764-.374,10.263,10.263,0,0,0-6.431-.885V1237.3h11.195Zm-13.061-15.5H6214.2v3.731h-14.927Zm-16.792,72.765a5.6,5.6,0,0,1-11.195,0v-27.711a6.505,6.505,0,0,1,4.764.409,10.292,10.292,0,0,0,6.431.9Zm0-30.269a6.488,6.488,0,0,1-4.764-.373,10.264,10.264,0,0,0-6.431-.89v-7.65h11.195Zm0-12.644H6171.29V1237.3h11.195Zm-13.061-29.852h14.927v3.731h-14.927Z" transform="translate(-6152.632 -1226.101)"/></g><rect class="a" width="3.815" height="3.816" transform="translate(6149.287 1227.109)"/><rect class="a" width="3.815" height="3.816" transform="translate(6153.415 1217.247)"/><g transform="translate(6148.756 1236.795)"><rect class="a" width="3.816" height="3.816" transform="translate(0 3.816)"/><rect class="a" width="3.816" height="3.816" transform="translate(3.816 0)"/><rect class="a" width="3.816" height="3.816" transform="translate(3.816 7.633)"/><rect class="a" width="3.815" height="3.816" transform="translate(7.633 3.816)"/></g><rect class="a" width="3.875" height="3.875" transform="translate(6259.833 1243.058)"/><rect class="a" width="3.873" height="3.873" transform="translate(6250.656 1238.337)"/></g></svg>
