<svg xmlns="http://www.w3.org/2000/svg" width="98.359" height="100" viewBox="0 0 98.359 100"><defs><style>.a{fill:#1abf98;}.b{fill:#330c2f;}.c{fill:#fff9fa;}</style></defs><g transform="translate(-5176.995 -1231.969)"><g transform="translate(5176.995 1231.969)"><path class="a" d="M5178.613,1384.94a1.621,1.621,0,1,1,1.532-1.1,1.634,1.634,0,0,1-1.532,1.1Zm0,0" transform="translate(-5176.995 -1333.221)"/><path class="b" d="M5180.862,1287.795a1.62,1.62,0,0,0-1.2,1.952,33,33,0,0,0,11.457,18,32.49,32.49,0,0,0,20.485,7.17,32.848,32.848,0,0,0,5.558-65.222l.99-10.7a1.621,1.621,0,0,0-1.612-1.769h-9.87a1.624,1.624,0,0,0-1.009.352,11.879,11.879,0,0,0-1.054-1.207c-6.718-6.719-20.051-3.77-20.614-3.641a1.62,1.62,0,0,0-1.219,1.218c-.128.564-3.077,13.9,3.642,20.615a13,13,0,0,0,3.787,2.6,32.834,32.834,0,0,0-10.548,17.271,1.62,1.62,0,0,0,1.2,1.952,1.641,1.641,0,0,0,.377.044,1.619,1.619,0,0,0,1.574-1.245,29.615,29.615,0,0,1,11.062-16.812,27.243,27.243,0,0,0,5.833.589,35.961,35.961,0,0,0,7.329-.753,1.068,1.068,0,0,1,1.262-.224h6.628a1.621,1.621,0,0,0,1.614-1.471l.331-3.576a29.608,29.608,0,1,1-34.05,36.065,1.619,1.619,0,0,0-1.953-1.2Zm21.456-49.14c3.835,3.835,3.667,10.894,3.216,14.807l-8.5-8.5a1.62,1.62,0,0,0-2.29,2.292l8.275,8.276c-3.992.4-10.645.4-14.315-3.266-4.525-4.524-3.478-13.537-2.967-16.576,3.039-.506,12.066-1.547,16.578,2.966Zm12.447,1.8-1.321,14.276h-3.674l-1.321-14.276Zm-6.317,0" transform="translate(-5178.764 -1231.969)"/></g><path class="c" d="M5295.849,1349.918c-4.549,0-8.764,2.108-12.869,6.545-4.659,4.881-6.545,16.2,2,24.738,3.994,3.994,21.188,21.854,25.071,25.848,3.883-4.1,21.078-21.854,25.072-25.848,8.431-8.431,6.544-19.857,2-24.738-4.1-4.327-8.431-6.545-12.979-6.545-5.658,0-10.65,3.994-13.2,10.317a.97.97,0,0,1-1,.666,1.122,1.122,0,0,1-1-.666C5306.388,1353.912,5301.4,1349.918,5295.849,1349.918Z" transform="translate(-68.996 -79.759)"/><g transform="translate(5206.653 1266.891)"><path class="b" d="M5302.992,1403.951a1.04,1.04,0,0,1-.8-.344c-.229-.229-22.14-22.828-26.843-27.532-9.866-9.865-7.457-23.058-2.065-28.794,4.818-5.047,9.75-7.457,15.027-7.457,5.966,0,11.472,3.671,14.569,9.751,3.212-6.08,8.719-9.751,14.684-9.751,5.392,0,10.324,2.524,15.027,7.457a19.368,19.368,0,0,1,4.7,12.848,22.338,22.338,0,0,1-6.768,15.946c-4.7,4.7-26.5,27.3-26.729,27.532A1.241,1.241,0,0,1,5302.992,1403.951Zm-14.2-60.858c-4.548,0-8.764,2.108-12.869,6.545-4.659,4.881-6.545,16.2,2,24.739,3.994,3.994,21.188,21.854,25.071,25.848,3.883-4.1,21.078-21.854,25.072-25.848,8.431-8.431,6.545-19.857,2-24.739-4.1-4.327-8.431-6.545-12.979-6.545-5.658,0-10.65,3.994-13.2,10.317a.97.97,0,0,1-1,.665,1.124,1.124,0,0,1-1-.665C5299.33,1347.087,5294.338,1343.093,5288.791,1343.093Z" transform="translate(-5268.591 -1339.825)"/><g transform="translate(14.691 19.376)"><rect class="a" width="13.766" height="3.963" rx="1.981" transform="translate(12.713 6.175)"/><path class="a" d="M5315.972,1407.944a2.062,2.062,0,0,0-2.01,2.01v6.7a2.01,2.01,0,0,0,4.021,0v-6.7A2.062,2.062,0,0,0,5315.972,1407.944Z" transform="translate(-5313.961 -1405.264)"/><path class="a" d="M5335.644,1399.666a2.061,2.061,0,0,0-2.011,2.01v12.062a2.01,2.01,0,1,0,4.021,0v-12.062A2.061,2.061,0,0,0,5335.644,1399.666Z" transform="translate(-5327.264 -1399.666)"/><path class="a" d="M5424.6,1407.944a2.061,2.061,0,0,0-2.011,2.01v6.7a2.01,2.01,0,1,0,4.021,0v-6.7A2.061,2.061,0,0,0,5424.6,1407.944Z" transform="translate(-5387.414 -1405.264)"/><path class="a" d="M5404.923,1399.666a2.061,2.061,0,0,0-2.01,2.01v12.062a2.01,2.01,0,1,0,4.021,0v-12.062A2.061,2.061,0,0,0,5404.923,1399.666Z" transform="translate(-5374.111 -1399.666)"/></g></g><g transform="translate(5232.045 1235.182)"><path class="a" d="M5368.143,1277.8a7.354,7.354,0,0,0,.018-10.4l-8.581-8.611a7.355,7.355,0,1,0-10.419,10.383l8.58,8.611a7.355,7.355,0,0,0,10.4.018Zm-9.267-2.362-7.369-7.395a4.9,4.9,0,1,1,6.937-6.911l7.368,7.394a4.9,4.9,0,1,1-6.937,6.912Zm.036,1.177" transform="translate(-5347.015 -1251.856)"/><path class="a" d="M5355.521,1273.216l-5.19-5.21a5.7,5.7,0,1,1,8.077-8.049l5.192,5.21,1.171-1.167-5.192-5.21a7.355,7.355,0,1,0-10.419,10.383l5.191,5.21Zm0,0" transform="translate(-5347.014 -1251.856)"/><path class="a" d="M5374.589,1273.936l2.3,2.3-9.87,9.835-2.3-2.3Zm.828.828" transform="translate(-5358.986 -1263.561)"/><path class="a" d="M5418.078,1254.97a4.679,4.679,0,0,0,.012-6.618l-5.064-5.082a4.679,4.679,0,1,0-6.629,6.606l5.064,5.083a4.68,4.68,0,0,0,6.618.012Zm-5.486-1.644-4.562-4.577a2.726,2.726,0,0,1,3.863-3.848l4.561,4.577a2.726,2.726,0,1,1-3.862,3.849Zm.039.465" transform="translate(-5386.246 -1241.893)"/><path class="a" d="M5410.283,1252.607a.826.826,0,0,0,0-1.169l-2.721-2.729a3.027,3.027,0,1,1,4.289-4.272l2.72,2.73a.827.827,0,0,0,1.171-1.167l-2.72-2.729a4.68,4.68,0,0,0-6.63,6.606l2.72,2.729a.826.826,0,0,0,1.168,0Zm0,0" transform="translate(-5386.246 -1241.893)"/><path class="a" d="M5421.558,1252.04l1.747,1.749-6.145,6.124-1.747-1.749Zm.531.531" transform="translate(-5393.266 -1248.755)"/><path class="a" d="M5441.008,1303.841a5.047,5.047,0,1,0-5.057,5.039,5.053,5.053,0,0,0,5.057-5.039Zm-8.259-.015a3.212,3.212,0,1,1,3.206,3.218,3.215,3.215,0,0,1-3.206-3.218Zm0,0" transform="translate(-5403.748 -1280.364)"/><path class="a" d="M5442.04,1309.9a.611.611,0,0,0,0-.865l-5.343-5.363a.612.612,0,1,0-.867.863l5.343,5.363a.612.612,0,0,0,.865,0Zm0,0" transform="translate(-5406.953 -1283.547)"/></g><rect class="a" width="3.672" height="3.67" transform="translate(5204.483 1320.016)"/><rect class="a" width="3.672" height="3.67" transform="translate(5194.996 1324.139)"/><g transform="translate(5213.802 1320.955)"><rect class="a" width="3.672" height="3.672" transform="translate(3.672 7.342)"/><rect class="a" width="3.672" height="3.672" transform="translate(0 3.67)"/><rect class="a" width="3.672" height="3.672" transform="translate(7.343 3.67)"/><rect class="a" width="3.672" height="3.67" transform="translate(3.672 0)"/></g></g></svg>
