<svg xmlns="http://www.w3.org/2000/svg" width="100.006" height="100" viewBox="0 0 100.006 100"><defs><style>.a{fill:#330c2f;}.b{fill:#fff9fa;}.c{fill:#1abf98;}</style></defs><g transform="translate(-6698.598 -1204.808)"><path class="a" d="M6790.578,1230.529a15.05,15.05,0,0,1-3,2.354l-17.047-17.048a15.066,15.066,0,0,1,2.354-3,4.7,4.7,0,0,0-6.649-6.649c-7.63,7.63-7.741,16.853-6.406,25.18-9.693-2-20.41-2.848-28.964,5.706a23.138,23.138,0,0,0-6.8,13.886,1.467,1.467,0,1,0,2.91.375,20.3,20.3,0,0,1,5.962-12.187c7.881-7.882,17.838-6.747,27.454-4.662.288,1.437.542,2.564.821,3.8-9.554-2.173-18.808-3.709-25.785,3.37-15.6,15.621,10.906,42.269-6.53,59.706a1.767,1.767,0,0,1-2.5-2.5c11.056-11.057,1.177-26.941.4-42.148a1.467,1.467,0,0,0-2.93.149,61.383,61.383,0,0,0,1.287,9.172c-8.327-1.335-17.55-1.223-25.18,6.405a4.7,4.7,0,0,0,6.65,6.649,15.079,15.079,0,0,1,3-2.354l17.048,17.047a15.085,15.085,0,0,1-2.354,3,4.7,4.7,0,0,0,6.648,6.648c7.629-7.629,7.741-16.853,6.405-25.179,11.065,2.28,20.953,2.306,28.965-5.706,8.555-8.554,7.7-19.272,5.705-28.966a44.534,44.534,0,0,0,8.394.622,1.467,1.467,0,0,0-.093-2.933,43.5,43.5,0,0,1-8.975-.776c-.282-1.239-.556-2.405-.865-3.746,8.137,1.638,15.882,2.119,22.146-4.145a1.767,1.767,0,0,1,2.5,2.5,20.055,20.055,0,0,1-9.476,5.448,1.467,1.467,0,0,0,.721,2.844,22.922,22.922,0,0,0,10.83-6.218,4.7,4.7,0,1,0-6.648-6.649Zm-86.028,46.484a1.768,1.768,0,0,1-2.5-2.5c4.751-4.751,10.32-6.18,15.86-6.18a45.666,45.666,0,0,1,7.92.789c.28,1.232.565,2.443.866,3.747-8.138-1.639-15.883-2.12-22.147,4.144Zm7.96-1.547c3.981-1.223,8.742-.755,14.887.546,1.3,6.146,1.77,10.906.546,14.887Zm22.746-7.312c-1.119-4.83-2.108-9.335-2.065-13.411l15.475,15.475c-4.075.043-8.58-.945-13.41-2.064Zm17.173,1.679-18.853-18.853a14,14,0,0,1,2.944-6.177l22.084,22.085a13.985,13.985,0,0,1-6.176,2.945Zm8.252-5.019-22.085-22.085a14,14,0,0,1,6.176-2.945l18.853,18.853a14,14,0,0,1-2.943,6.177Zm1.265-23.351c1.12,4.83,2.108,9.335,2.065,13.41l-15.474-15.474c4.074-.044,8.58.946,13.409,2.064Zm2.32,29.01c-7.882,7.882-17.838,6.747-27.454,4.663-.208-1.032-.433-2.1-.821-3.8,9.677,2.2,18.739,3.677,25.775-3.36,15.494-15.494-10.8-42.379,6.54-59.716a1.768,1.768,0,0,1,2.5,2.5c-15.583,15.583,10.891,42.286-6.54,59.716Zm5.539-36.868c-1.3-6.146-1.77-10.906-.546-14.887l15.433,15.433c-3.981,1.224-8.741.756-14.887-.546Zm0,0"/><g transform="translate(6750.328 1248.117)"><path class="b" d="M6914.389,1387.712c-2.919,7.913-8.877,13.348-18.214,16.614a.908.908,0,0,1-.106.029.746.746,0,0,1-.292,0,.848.848,0,0,1-.1-.028c-9.348-3.26-15.309-8.691-18.226-16.6-2.551-6.921-2.407-14.514-2.279-21.213v-.037c.025-.576.043-1.179.053-1.842a2.67,2.67,0,0,1,2.517-2.614,29.185,29.185,0,0,0,9.906-2.179,25.908,25.908,0,0,0,8.073-5.424.308.308,0,0,1,.412,0,25.923,25.923,0,0,0,8.073,5.424,29.19,29.19,0,0,0,9.907,2.179,2.671,2.671,0,0,1,2.517,2.614c.01.666.027,1.269.053,1.841.128,6.707.269,14.306-2.289,21.241Z" transform="translate(-6871.784 -1351.004)"/><path class="c" d="M6912.669,1359.041l0-.044c-.024-.544-.041-1.121-.051-1.762a6.009,6.009,0,0,0-5.658-5.886c-6.518-.364-11.56-2.489-15.869-6.689l-.037-.035a3.628,3.628,0,0,0-4.931,0l-.037.035c-4.309,4.2-9.351,6.325-15.869,6.689a6.008,6.008,0,0,0-5.657,5.886c-.01.637-.026,1.213-.051,1.761l0,.1c-.127,6.646-.284,14.919,2.483,22.427a28.546,28.546,0,0,0,6.849,10.668,35.824,35.824,0,0,0,13.4,7.928,4.093,4.093,0,0,0,.549.149,4.051,4.051,0,0,0,1.6,0,4.108,4.108,0,0,0,.551-.15,35.848,35.848,0,0,0,13.389-7.932,28.587,28.587,0,0,0,6.849-10.671c2.778-7.531,2.621-15.818,2.495-22.477Zm-5.615,21.326c-2.919,7.913-8.877,13.348-18.214,16.614a.908.908,0,0,1-.106.029.746.746,0,0,1-.292,0,.848.848,0,0,1-.1-.028c-9.348-3.26-15.309-8.691-18.226-16.6-2.551-6.921-2.407-14.514-2.279-21.213v-.037c.025-.576.043-1.179.053-1.842a2.67,2.67,0,0,1,2.517-2.614,29.185,29.185,0,0,0,9.906-2.179,25.908,25.908,0,0,0,8.073-5.424.308.308,0,0,1,.412,0,25.923,25.923,0,0,0,8.073,5.424,29.19,29.19,0,0,0,9.907,2.179,2.671,2.671,0,0,1,2.517,2.614c.01.666.027,1.269.053,1.841.128,6.707.269,14.306-2.289,21.241Zm0,0" transform="translate(-6864.449 -1343.659)"/><path class="a" d="M6924.85,1408.269l-11.712,11.711-4.9-4.9a1.852,1.852,0,0,0-2.619,2.618l6.205,6.205a1.852,1.852,0,0,0,2.619,0l13.021-13.021a1.851,1.851,0,0,0-2.618-2.618Zm0,0" transform="translate(-6892.408 -1387.743)"/></g><rect class="c" width="4.948" height="4.947" transform="translate(6700.08 1221.389)"/><rect class="c" width="4.948" height="4.948" transform="translate(6710.228 1234.92)"/><g transform="translate(6718.104 1210.433)"><rect class="c" width="4.948" height="4.948" transform="translate(4.948 0)"/><rect class="c" width="4.948" height="4.948" transform="translate(9.896 4.948)"/><rect class="c" width="4.948" height="4.948" transform="translate(0 4.948)"/><rect class="c" width="4.948" height="4.947" transform="translate(4.948 9.896)"/></g></g></svg>
