<svg xmlns="http://www.w3.org/2000/svg" width="107.596" height="100" viewBox="0 0 107.596 100"><defs><style>.a{fill:#330c2f;}.b{fill:#1abf98;}</style></defs><g transform="translate(-4186.517 -1238.197)"><path class="a" d="M4318.215,1319.627h-34.163a8.765,8.765,0,0,1-7.554-13.209l16.567-28.163v-25.609a1.778,1.778,0,0,1,1.777-1.778h10.678a1.778,1.778,0,0,1,1.778,1.778v25.56l18.17,28.088a8.642,8.642,0,0,1-7.255,13.333Zm-21.594-65.2v24.315a1.783,1.783,0,0,1-.245.9l-16.821,28.58a5.209,5.209,0,0,0,4.5,7.851h34.163a5.085,5.085,0,0,0,4.267-7.847l-18.453-28.52a1.769,1.769,0,0,1-.285-.965v-24.315Z" transform="translate(-60.338 -8.612)"/><path class="b" d="M4311.907,1383.2h-12.35a1.778,1.778,0,0,1-1.534-2.679l15.095-25.658,3.065,1.8-13.52,22.981h9.244Z" transform="translate(-75.623 -79.299)"/><path class="b" d="M4386.291,1426.684h3.556v3.555h-3.556Z" transform="translate(-135.785 -128.114)"/><path class="b" d="M4369.641,1404.483h3.555v3.556h-3.555Z" transform="translate(-124.468 -113.024)"/><g transform="translate(4186.517 1238.197)"><rect class="b" width="3.243" height="3.242" transform="translate(13.12 13.351)"/><rect class="b" width="3.243" height="3.242" transform="translate(7.299 7.839)"/><rect class="b" width="3.243" height="3.242" transform="translate(104.122 93.131)"/><path class="a" d="M4443.126,1347.126a1.567,1.567,0,0,0-1.108.459l-6.329,6.329h-8.765a1.567,1.567,0,0,0,0,3.134h9.414a1.568,1.568,0,0,0,1.108-.459l6.329-6.329h3.051a4.941,4.941,0,1,0,0-3.134Zm8.385-.241a1.807,1.807,0,1,1-1.808,1.808,1.81,1.81,0,0,1,1.808-1.808Zm0,0" transform="translate(-4348.856 -1309.942)"/><path class="a" d="M4460.066,1406.434a4.947,4.947,0,0,0-4.685,3.374h-3.051l-6.329-6.329a1.564,1.564,0,0,0-1.107-.458h-4.474a1.567,1.567,0,1,0,0,3.134h3.825l6.327,6.328a1.565,1.565,0,0,0,1.108.46h3.7a4.941,4.941,0,1,0,4.685-6.508Zm0,6.748a1.807,1.807,0,1,1,1.807-1.807,1.809,1.809,0,0,1-1.807,1.807Zm0,0" transform="translate(-4358.028 -1350.227)"/><path class="a" d="M4218.1,1403.021h-4.308a1.567,1.567,0,0,0-1.108.458l-6.329,6.329h-7.736a1.567,1.567,0,0,0,0,3.134H4207a1.562,1.562,0,0,0,1.108-.46l6.329-6.328h3.659a1.567,1.567,0,1,0,0-3.134Zm0,0" transform="translate(-4193.677 -1350.227)"/><path class="a" d="M4207.741,1317.036h11.141l11.715,11.716a1.567,1.567,0,0,0,2.217-2.216l-12.175-12.174a1.565,1.565,0,0,0-1.108-.46h-11.79a1.567,1.567,0,0,0,0,3.134Zm0,0" transform="translate(-4199.877 -1289.653)"/><path class="a" d="M4196.145,1370.561h18.665a1.567,1.567,0,1,0,0-3.134h-18.665a4.941,4.941,0,1,0,0,3.134Zm-6.493-1.567a1.807,1.807,0,1,1,1.807,1.807,1.809,1.809,0,0,1-1.807-1.807Zm0,0" transform="translate(-4186.517 -1323.74)"/><path class="a" d="M4255.417,1468.113l-2.488,2.489a1.565,1.565,0,0,0-.46,1.108v8.192a4.942,4.942,0,1,0,3.134,0v-7.542l2.031-2.03a1.568,1.568,0,0,0-2.217-2.217Zm-1.38,18.281a1.807,1.807,0,1,1,1.807-1.807,1.809,1.809,0,0,1-1.807,1.807Zm0,0" transform="translate(-4229.051 -1394.158)"/><path class="a" d="M4388.648,1482.569a1.568,1.568,0,0,0-2.217,2.217l2.031,2.03v7.542a4.941,4.941,0,1,0,3.135,0v-8.192a1.568,1.568,0,0,0-.46-1.108l-2.488-2.489Zm1.381,18.281a1.807,1.807,0,1,1,1.807-1.807,1.809,1.809,0,0,1-1.807,1.807Zm0,0" transform="translate(-4321.484 -1403.984)"/><path class="a" d="M4435.857,1469.062a1.567,1.567,0,1,0-2.216,2.217l1.727,1.726v14.079a1.567,1.567,0,1,0,3.134,0v-14.729a1.565,1.565,0,0,0-.46-1.108Zm0,0" transform="translate(-4354.174 -1394.804)"/><path class="a" d="M4399.707,1269.828a1.563,1.563,0,0,0,1.108-.459l13.408-13.408a1.567,1.567,0,0,0,.458-1.108v-7.029a4.94,4.94,0,1,0-3.134,0v6.38l-12.949,12.949a1.567,1.567,0,0,0,1.108,2.675Zm13.408-28.5a1.807,1.807,0,1,1-1.807,1.807,1.809,1.809,0,0,1,1.807-1.807Zm0,0" transform="translate(-4330.356 -1238.197)"/><path class="a" d="M4262.763,1260.033V1248.34a1.567,1.567,0,1,0-3.134,0v12.342a1.569,1.569,0,0,0,.46,1.108l13.168,13.168a1.567,1.567,0,0,0,2.217-2.216Zm0,0" transform="translate(-4236.21 -1244.026)"/><path class="a" d="M4413.7,1311.494a1.567,1.567,0,1,0,0,3.134h9.173a1.57,1.57,0,0,0,1.108-.459l10.036-10.036a1.567,1.567,0,0,0,.458-1.108V1295.1a1.567,1.567,0,1,0-3.134,0v7.279l-9.118,9.118H4413.7Zm0,0" transform="translate(-4339.866 -1275.807)"/><path class="a" d="M4461.638,1448.106h-5.768l-7.064-7.065a1.567,1.567,0,1,0-2.217,2.216l7.524,7.524a1.564,1.564,0,0,0,1.108.459h6.417a1.567,1.567,0,0,0,0-3.134Zm0,0" transform="translate(-4362.975 -1375.757)"/><path class="a" d="M4214.058,1439.525h2.076a1.567,1.567,0,1,0,0-3.134h-2.725a1.57,1.57,0,0,0-1.108.459l-9.577,9.575a4.953,4.953,0,1,0,2.246,2.188Zm-13.479,13.158a1.807,1.807,0,1,1,1.808-1.807,1.809,1.809,0,0,1-1.808,1.807Zm0,0" transform="translate(-4192.716 -1372.908)"/><g transform="translate(92.177 81.782)"><rect class="b" width="3.287" height="3.287" transform="translate(3.287)"/><rect class="b" width="3.287" height="3.287" transform="translate(6.574 3.287)"/><rect class="b" width="3.287" height="3.287" transform="translate(0 3.287)"/><rect class="b" width="3.287" height="3.286" transform="translate(3.287 6.574)"/></g><rect class="b" width="3.243" height="3.242" transform="translate(47.583 90.358)"/><rect class="b" width="3.243" height="3.242" transform="translate(53.831 82.812)"/><g transform="translate(35.637 79.009)"><rect class="b" width="3.287" height="3.287" transform="translate(3.287)"/><rect class="b" width="3.287" height="3.287" transform="translate(6.574 3.287)"/><rect class="b" width="3.287" height="3.287" transform="translate(0 3.287)"/><rect class="b" width="3.287" height="3.286" transform="translate(3.287 6.574)"/></g></g></g></svg>
