<svg xmlns="http://www.w3.org/2000/svg" width="121.876" height="100" viewBox="0 0 121.876 100"><defs><style>.a{fill:#330c2f;}.b{fill:#1abf98;}</style></defs><g transform="translate(-4689.259 -1253.063)"><path class="a" d="M4772.052,1333.284a24.3,24.3,0,0,1-2.717-2.118l-7.993,7.862a11.918,11.918,0,0,0-14.531.052l-12.684-12.3a10.432,10.432,0,1,0-17.05.13L4702.5,1341.48a8.55,8.55,0,1,0,2.415,2.415l14.573-14.573a10.4,10.4,0,0,0,12.259-.093l12.683,12.3a11.953,11.953,0,1,0,19.306-.069Zm-74.254,20.441a5.123,5.123,0,1,1,5.123-5.124A5.129,5.129,0,0,1,4697.8,1353.724Zm20.742-32.881a7.015,7.015,0,1,1,7.015,7.015A7.024,7.024,0,0,1,4718.54,1320.843Zm35.57,36.233a8.539,8.539,0,1,1,8.539-8.539A8.549,8.549,0,0,1,4754.11,1357.076Z" transform="translate(0 -35.569)"/><rect class="b" width="4.372" height="4.371" transform="translate(4694.199 1283.361)"/><rect class="b" width="4.372" height="4.372" transform="translate(4701.85 1274.684)"/><rect class="b" width="4.372" height="4.371" transform="translate(4692.56 1341.292)"/><rect class="b" width="4.372" height="4.372" transform="translate(4700.211 1332.615)"/><rect class="b" width="4.372" height="4.372" transform="translate(4729.006 1253.063)"/><g transform="translate(4737.407 1258.255)"><rect class="b" width="4.372" height="4.372" transform="translate(4.372 0)"/><rect class="b" width="4.372" height="4.372" transform="translate(8.744 4.372)"/><rect class="b" width="4.372" height="4.372" transform="translate(0 4.372)"/><rect class="b" width="4.372" height="4.371" transform="translate(4.372 8.745)"/></g><rect class="b" width="4.372" height="4.372" transform="translate(4787.013 1318.565)"/><rect class="b" width="4.371" height="4.371" transform="translate(4776.657 1313.239)"/><path class="a" d="M4902.878,1303.367h-.016a24.312,24.312,0,0,1,.015-48.624h.014a24.158,24.158,0,0,1,9.881,2.1,2.054,2.054,0,0,1-1.672,3.752,20.081,20.081,0,0,0-8.211-1.749h-.012a20.2,20.2,0,0,0-.011,40.408h.012a20.2,20.2,0,0,0,20.2-20.192V1277a2.054,2.054,0,0,1,4.108,0v2.07a24.313,24.313,0,0,1-24.312,24.3Z" transform="translate(-117.412 -1.042)"/><path class="b" d="M4926.034,1291.517a2.045,2.045,0,0,1-1.452-.6l-6.678-6.677a2.054,2.054,0,0,1,2.905-2.905l5.224,5.225,23.032-23.031a2.054,2.054,0,0,1,2.9,2.9l-24.483,24.484A2.049,2.049,0,0,1,4926.034,1291.517Z" transform="translate(-141.437 -6.116)"/><path class="b" d="M4774.115,1455.507a6.561,6.561,0,1,1,6.562-6.562A6.561,6.561,0,0,1,4774.115,1455.507Zm0-9.4a2.836,2.836,0,1,0,2.836,2.836A2.836,2.836,0,0,0,4774.115,1446.109Z" transform="translate(-48.56 -117.42)"/><path class="b" d="M4850.474,1494.941a6.562,6.562,0,1,1,6.562-6.562A6.562,6.562,0,0,1,4850.474,1494.941Zm0-9.632a3.071,3.071,0,1,0,3.072,3.071A3.071,3.071,0,0,0,4850.474,1485.308Z" transform="translate(-95.919 -141.878)"/></g></svg>
