<svg xmlns="http://www.w3.org/2000/svg" width="100" height="100" viewBox="0 0 100 100"><defs><style>.a{fill:#330c2f;}.b{fill:#1abf98;}</style></defs><g transform="translate(-5637.972 -1198.415)"><g transform="translate(5637.972 1198.415)"><rect class="a" width="3.226" height="3.226" transform="translate(9.677 90.323)"/><rect class="a" width="3.226" height="3.226" transform="translate(16.129 90.323)"/><rect class="a" width="3.226" height="3.226" transform="translate(22.581 90.323)"/><rect class="a" width="12.903" height="3.226" transform="translate(77.419 90.323)"/><path class="a" d="M5734.747,1282.286V1229.06a8.074,8.074,0,0,0-8.064-8.065h-4.839a22.58,22.58,0,1,0-45.161,0h-27.42a8.074,8.074,0,0,0-8.064,8.065v53.226h-3.226v8.065a8.074,8.074,0,0,0,8.064,8.064h83.871a8.074,8.074,0,0,0,8.064-8.064v-8.065Zm-8.064-58.065a4.845,4.845,0,0,1,4.838,4.839v53.226h-3.226v-51.613a3.229,3.229,0,0,0-3.226-3.226h-4.177a22.524,22.524,0,0,0,.693-3.226Zm-82.258,4.839a4.845,4.845,0,0,1,4.838-4.839h27.678a22.2,22.2,0,0,0,.693,3.226h-26.758a3.229,3.229,0,0,0-3.226,3.226v51.613h-3.226Zm90.323,61.29a4.845,4.845,0,0,1-4.839,4.839h-83.871a4.845,4.845,0,0,1-4.839-4.839v-4.839h33.229a12.532,12.532,0,0,0,8.431,3.226h10.23a12.533,12.533,0,0,0,8.431-3.226h20.324v-3.226h-21.635l-.473.473a9.338,9.338,0,0,1-6.648,2.753h-10.23a9.343,9.343,0,0,1-6.649-2.753l-.471-.473h-24.861v-51.613h28.017a22.531,22.531,0,0,0,40.741,0h5.437v54.839h9.677Zm0,0-16.51-69.339a18.974,18.974,0,1,1-18.974-18.974A18.974,18.974,0,0,1,5718.236,1221.011Z" transform="translate(-5637.972 -1198.415)"/><path class="b" d="M5753.546,1397.709a4.812,4.812,0,0,0-2.679.814l-5.627-4.219a4.771,4.771,0,0,0,.242-1.434,4.839,4.839,0,1,0-9.393,1.577l-9.033,7.227a4.743,4.743,0,0,0-5.428.237l-6.954-4.637a4.765,4.765,0,0,0,.163-1.179,4.839,4.839,0,0,0-9.677,0,4.765,4.765,0,0,0,.163,1.179l-6.955,4.637a4.783,4.783,0,0,0-2.885-.978,4.839,4.839,0,1,0,4.838,4.839,4.743,4.743,0,0,0-.163-1.179l6.955-4.637a4.748,4.748,0,0,0,5.771,0l6.955,4.637a4.729,4.729,0,0,0-.163,1.179,4.839,4.839,0,1,0,9.677,0,4.791,4.791,0,0,0-.285-1.577l9.034-7.227a4.774,4.774,0,0,0,5.221-.074l5.627,4.219a4.758,4.758,0,0,0-.242,1.434,4.839,4.839,0,1,0,4.839-4.839Zm-58.064,9.677a1.613,1.613,0,1,1,1.613-1.613,1.616,1.616,0,0,1-1.613,1.613Zm14.516-9.677a1.613,1.613,0,1,1,1.613-1.613,1.616,1.616,0,0,1-1.613,1.613Zm14.517,9.677a1.613,1.613,0,1,1,1.613-1.613,1.616,1.616,0,0,1-1.613,1.613Zm16.129-12.9a1.613,1.613,0,1,1,1.613-1.613,1.616,1.616,0,0,1-1.613,1.613Zm12.9,9.677a1.613,1.613,0,1,1,1.613-1.613,1.616,1.616,0,0,1-1.613,1.613Zm0,0" transform="translate(-5674.514 -1329.967)"/><path class="a" d="M5716.45,1314.292h-25.807v22.581h25.807Zm-3.226,19.355h-19.355v-16.129h19.355Zm0,0" transform="translate(-5674.514 -1278.808)"/><rect class="b" width="12.903" height="3.226" transform="translate(22.581 41.936)"/><rect class="b" width="12.903" height="3.226" transform="translate(22.581 48.387)"/><rect class="a" width="3.226" height="3.226" transform="translate(45.161 50.082)"/><rect class="a" width="32.258" height="3.226" transform="translate(51.613 50.082)"/><path class="b" d="M5822.675,1250.359l-9.668,9.668-4.042-4.041a1.529,1.529,0,1,0-2.162,2.161l5.123,5.123a1.528,1.528,0,0,0,2.161,0l10.75-10.749a1.529,1.529,0,0,0-2.162-2.162Zm0,0" transform="translate(-5754.793 -1234.142)"/></g><rect class="b" width="3.472" height="3.471" transform="translate(5651.728 1204.27)"/><rect class="b" width="3.472" height="3.471" transform="translate(5642.755 1208.169)"/><g transform="translate(5660.542 1205.157)"><rect class="b" width="3.472" height="3.472" transform="translate(3.472 6.944)"/><rect class="b" width="3.472" height="3.472" transform="translate(0 3.471)"/><rect class="b" width="3.472" height="3.472" transform="translate(6.945 3.471)"/><rect class="b" width="3.472" height="3.471" transform="translate(3.472)"/></g><rect class="b" width="3.525" height="3.525" transform="translate(5733.933 1210.982)"/><rect class="b" width="3.524" height="3.524" transform="translate(5725.583 1206.687)"/></g></svg>
