<svg xmlns="http://www.w3.org/2000/svg" width="111.662" height="100" viewBox="0 0 111.662 100"><defs><style>.a{fill:#330c2f;}.b{fill:#1abf98;}.c{fill:#fff9fa;}</style></defs><g transform="translate(-3665.471 -1252.184)"><g transform="translate(3665.471 1252.184)"><path class="a" d="M3730.356,1393.215h-38.6a9.9,9.9,0,0,1-8.534-14.923l18.717-31.818v-28.933a2.008,2.008,0,0,1,2.009-2.009h12.064a2.008,2.008,0,0,1,2.009,2.009v28.877l20.528,31.733a9.763,9.763,0,0,1-8.2,15.063Zm-24.4-73.665v27.471a2.007,2.007,0,0,1-.277,1.018l-19,32.29a5.885,5.885,0,0,0,5.081,8.869h38.6a5.744,5.744,0,0,0,4.82-8.865l-20.847-32.221a2.008,2.008,0,0,1-.322-1.091V1319.55Z" transform="translate(-3676.144 -1293.44)"/><path class="b" d="M3721.156,1455.458H3707.2a2.009,2.009,0,0,1-1.733-3.027l17.054-28.988,3.462,2.035-15.274,25.963h10.444Z" transform="translate(-3691.34 -1363.718)"/><path class="a" d="M3820.4,1298.988a30.153,30.153,0,0,0-17.861-10.751,2.009,2.009,0,0,1-1.633-1.973V1256.2h-10.042v30.532a2.008,2.008,0,0,1-1.506,1.947,30.077,30.077,0,0,0-7.531,3.079l-2.008-3.477a34.088,34.088,0,0,1,7.029-3.067v-31.022a2.008,2.008,0,0,1,2.008-2.008h14.059a2.008,2.008,0,0,1,2.008,2.008v30.452a34.192,34.192,0,0,1,18.608,11.83Z" transform="translate(-3739.941 -1252.184)"/><path class="b" d="M3891.343,1309.379a6.025,6.025,0,1,1,6.025-6.025A6.025,6.025,0,0,1,3891.343,1309.379Zm0-8.034a2.008,2.008,0,1,0,2.009,2.008A2.009,2.009,0,0,0,3891.343,1301.345Z" transform="translate(-3808.646 -1281.584)"/><path class="b" d="M3686.956,1320.045a7.03,7.03,0,1,1,7.03-7.03A7.029,7.029,0,0,1,3686.956,1320.045Zm0-10.042a3.013,3.013,0,1,0,3.013,3.012A3.012,3.012,0,0,0,3686.956,1310Z" transform="translate(-3674.885 -1287.223)"/><path class="b" d="M3731.171,1274.825a6.025,6.025,0,1,1,6.026-6.025A6.025,6.025,0,0,1,3731.171,1274.825Zm0-8.034a2.008,2.008,0,1,0,2.009,2.008A2.008,2.008,0,0,0,3731.171,1266.791Z" transform="translate(-3704.335 -1259.081)"/><path class="b" d="M3665.471,1449.16h4.017v4.017h-4.017Z" transform="translate(-3665.471 -1380.465)"/><path class="b" d="M3709.687,1376.911h4.017v4.017h-4.017Z" transform="translate(-3694.267 -1333.413)"/><path class="b" d="M3799.009,1373.2h4.017v4.017h-4.017Z" transform="translate(-3752.438 -1330.996)"/><path class="b" d="M3797.038,1497.965h4.017v4.017h-4.017Z" transform="translate(-3751.154 -1412.249)"/><path class="b" d="M3779.761,1474.929h4.017v4.017h-4.017Z" transform="translate(-3739.903 -1397.247)"/><g transform="translate(1.469 50.265)"><rect class="b" width="3.729" height="3.729" transform="translate(3.729)"/><rect class="b" width="3.729" height="3.729" transform="translate(0 3.729)"/><rect class="b" width="3.729" height="3.729" transform="translate(7.458 3.729)"/><rect class="b" width="3.729" height="3.728" transform="translate(3.729 7.458)"/></g></g><path class="c" d="M3820.563,1395.43a20.935,20.935,0,1,1,21.008,20.863,20.959,20.959,0,0,1-21.008-20.863Z" transform="translate(-101.004 -79.608)"/><g transform="translate(3716.269 1291.525)"><path class="b" d="M3871.344,1417.225l-15.387-15.281a24.246,24.246,0,1,0-7.733,7.786l15.388,15.282a2.2,2.2,0,0,0,3.106-.011l4.637-4.669A2.2,2.2,0,0,0,3871.344,1417.225Zm-56.925-27.938a20.935,20.935,0,1,1,21.008,20.863,20.959,20.959,0,0,1-21.008-20.863Zm39.593,15.362,13.641,13.547a.842.842,0,0,1,0,1.191l-1.909,1.922a.842.842,0,0,1-1.191,0l-13.641-13.547a24.464,24.464,0,0,0,3.1-3.117Zm0,0" transform="translate(-3811.129 -1364.99)"/></g><path class="a" d="M3874.4,1445.759a1.744,1.744,0,0,1-.006-3.487,13.547,13.547,0,0,0,13.485-13.578,1.744,1.744,0,0,1,1.738-1.75h.006a1.744,1.744,0,0,1,1.743,1.738,17.039,17.039,0,0,1-16.961,17.078Z" transform="translate(-134.933 -113.813)"/></g></svg>
